:FULLY-SPECIFIED
:FORCE-ALL-JOINTS-BE-3DOF
:DEGREES
227
root 8.7474 16.3934 -5.29623 8.97035 -3.12024 -5.11575
lfemur -44.3612 1.93151 -14.0947
ltibia 26.6425 0 0
lfoot -14.1046 12.4511 0
ltoes -12.0497 0 0
rfemur 11.5715 4.50875 27.88
rtibia 10.7992 0 0
rfoot -5.71041 5.98779 0
rtoes -12.0885 0 0
lowerback -7.46207 2.5315 2.43115
upperback -1.54368 3.03484 3.21589
thorax 2.54208 1.53768 2.26186
lowerneck -16.3711 -6.05341 -14.3806
upperneck 15.391 -7.66688 14.921
head 8.67172 -3.09609 6.53698
lclavicle -3.01055e-015 -2.50085e-015 0
lhumerus -49.1315 -8.27871 93.8056
lradius 23.5312 0 0
lwrist 2.25326 0 0
lhand -12.7552 -29.1671 0
lfingers 7.12502 0 0
lthumb 13.3284 0.373811 0
rclavicle -3.01055e-015 -2.50085e-015 0
rhumerus -41.136 12.512 -85.6032
rradius 49.853 0 0
rwrist -26.3428 0 0
rhand -31.0884 -28.2652 0
rfingers 7.12502 0 0
rthumb -4.3685 -58.199 0
228
root 8.77844 16.3948 -5.12922 8.99329 -3.26973 -4.94327
lfemur -44.2259 2.26735 -14.5591
ltibia 27.3074 0 0
lfoot -13.8847 12.1437 0
ltoes -11.2797 0 0
rfemur 11.3585 4.31642 27.4604
rtibia 11.9992 0 0
rfoot -4.94018 5.89661 0
rtoes -12.264 0 0
lowerback -7.38823 2.50775 2.27768
upperback -1.60947 3.02005 3.14536
thorax 2.42954 1.53043 2.26784
lowerneck -16.5049 -6.03918 -14.3434
upperneck 15.5117 -7.64432 14.8832
head 8.73009 -3.08113 6.52299
lclavicle -1.42899e-015 -1.32096e-015 0
lhumerus -48.9178 -8.15462 93.5763
lradius 23.3617 0 0
lwrist 1.918 0 0
lhand -12.5958 -28.9252 0
lfingers 7.12502 0 0
lthumb 13.482 0.604835 0
rclavicle -1.42899e-015 -1.32096e-015 0
rhumerus -41.4251 12.3851 -85.7077
rradius 49.4387 0 0
rwrist -26.3008 0 0
rhand -31.0354 -28.2067 0
rfingers 7.12502 0 0
rthumb -4.31734 -58.1414 0
229
root 8.80948 16.3963 -4.9622 9.01623 -3.41922 -4.77078
lfemur -44.0905 2.6032 -15.0234
ltibia 27.9723 0 0
lfoot -13.6648 11.8364 0
ltoes -10.5097 0 0
rfemur 11.1455 4.12409 27.0408
rtibia 13.1991 0 0
rfoot -4.16995 5.80543 0
rtoes -12.4396 0 0
lowerback -7.31438 2.48399 2.12422
upperback -1.67526 3.00526 3.07482
thorax 2.31701 1.52318 2.27383
lowerneck -16.6386 -6.02495 -14.3062
upperneck 15.6323 -7.62176 14.8454
head 8.78846 -3.06618 6.509
lclavicle 1.52574e-016 -1.41077e-016 0
lhumerus -48.7041 -8.03052 93.3471
lradius 23.1923 0 0
lwrist 1.58274 0 0
lhand -12.4364 -28.6833 0
lfingers 7.12502 0 0
lthumb 13.6356 0.83586 0
rclavicle 1.52574e-016 -1.41077e-016 0
rhumerus -41.7143 12.2582 -85.8123
rradius 49.0243 0 0
rwrist -26.2587 0 0
rhand -30.9824 -28.1482 0
rfingers 7.12502 0 0
rthumb -4.26618 -58.0839 0
230
root 8.84053 16.3977 -4.79518 9.03916 -3.56871 -4.5983
lfemur -43.9552 2.93905 -15.4878
ltibia 28.6373 0 0
lfoot -13.4449 11.529 0
ltoes -9.73974 0 0
rfemur 10.9325 3.93177 26.6212
rtibia 14.399 0 0
rfoot -3.39971 5.71426 0
rtoes -12.6152 0 0
lowerback -7.24054 2.46023 1.97076
upperback -1.74105 2.99047 3.00428
thorax 2.20447 1.51592 2.27981
lowerneck -16.7724 -6.01072 -14.269
upperneck 15.753 -7.5992 14.8076
head 8.84683 -3.05122 6.495
lclavicle 1.73414e-015 1.03881e-015 0
lhumerus -48.4904 -7.90643 93.1178
lradius 23.0228 0 0
lwrist 1.24748 0 0
lhand -12.277 -28.4414 0
lfingers 7.12502 0 0
lthumb 13.7892 1.06688 0
rclavicle 1.73414e-015 1.03881e-015 0
rhumerus -42.0035 12.1313 -85.9169
rradius 48.6099 0 0
rwrist -26.2166 0 0
rhand -30.9295 -28.0898 0
rfingers 7.12502 0 0
rthumb -4.21502 -58.0264 0
231
root 8.87157 16.3992 -4.62816 9.0621 -3.71819 -4.42581
lfemur -43.8199 3.27489 -15.9522
ltibia 29.3022 0 0
lfoot -13.225 11.2216 0
ltoes -8.96975 0 0
rfemur 10.7195 3.73944 26.2017
rtibia 15.5989 0 0
rfoot -2.62948 5.62308 0
rtoes -12.7908 0 0
lowerback -7.16669 2.43648 1.8173
upperback -1.80683 2.97568 2.93375
thorax 2.09193 1.50867 2.28579
lowerneck -16.9062 -5.99648 -14.2317
upperneck 15.8737 -7.57664 14.7698
head 8.90521 -3.03626 6.48101
lclavicle 3.3157e-015 2.21869e-015 0
lhumerus -48.2767 -7.78234 92.8885
lradius 22.8533 0 0
lwrist 0.912216 0 0
lhand -12.1176 -28.1994 0
lfingers 7.12502 0 0
lthumb 13.9427 1.29791 0
rclavicle 3.3157e-015 2.21869e-015 0
rhumerus -42.2927 12.0045 -86.0214
rradius 48.1956 0 0
rwrist -26.1746 0 0
rhand -30.8765 -28.0313 0
rfingers 7.12502 0 0
rthumb -4.16386 -57.9689 0
232
root 8.90261 16.4007 -4.46115 9.08504 -3.86768 -4.25333
lfemur -43.6845 3.61074 -16.4166
ltibia 29.9671 0 0
lfoot -13.0051 10.9143 0
ltoes -8.19975 0 0
rfemur 10.5065 3.54711 25.7821
rtibia 16.7988 0 0
rfoot -1.85925 5.5319 0
rtoes -12.9664 0 0
lowerback -7.09284 2.41272 1.66384
upperback -1.87262 2.96089 2.86321
thorax 1.9794 1.50142 2.29178
lowerneck -17.0399 -5.98225 -14.1945
upperneck 15.9943 -7.55408 14.732
head 8.96358 -3.02131 6.46702
lclavicle 4.89726e-015 3.39857e-015 0
lhumerus -48.063 -7.65824 92.6593
lradius 22.6839 0 0
lwrist 0.576955 0 0
lhand -11.9583 -27.9575 0
lfingers 7.12502 0 0
lthumb 14.0963 1.52893 0
rclavicle 4.89726e-015 3.39857e-015 0
rhumerus -42.5819 11.8776 -86.126
rradius 47.7812 0 0
rwrist -26.1325 0 0
rhand -30.8235 -27.9728 0
rfingers 7.12502 0 0
rthumb -4.1127 -57.9114 0
233
root 8.93365 16.4021 -4.29413 9.10798 -4.01717 -4.08084
lfemur -43.5492 3.94659 -16.8809
ltibia 30.632 0 0
lfoot -12.7852 10.6069 0
ltoes -7.42975 0 0
rfemur 10.2935 3.35478 25.3625
rtibia 17.9987 0 0
rfoot -1.08902 5.44072 0
rtoes -13.142 0 0
lowerback -7.019 2.38897 1.51038
upperback -1.93841 2.9461 2.79268
thorax 1.86686 1.49417 2.29776
lowerneck -17.1737 -5.96802 -14.1573
upperneck 16.115 -7.53152 14.6942
head 9.02195 -3.00635 6.45303
lclavicle 6.47882e-015 4.57846e-015 0
lhumerus -47.8493 -7.53415 92.43
lradius 22.5144 0 0
lwrist 0.241695 0 0
lhand -11.7989 -27.7156 0
lfingers 7.12502 0 0
lthumb 14.2499 1.75996 0
rclavicle 6.47882e-015 4.57846e-015 0
rhumerus -42.8711 11.7507 -86.2306
rradius 47.3668 0 0
rwrist -26.0905 0 0
rhand -30.7705 -27.9143 0
rfingers 7.12502 0 0
rthumb -4.06154 -57.8539 0
234
root 8.9647 16.4036 -4.12711 9.13092 -4.16666 -3.90836
lfemur -43.4138 4.28243 -17.3453
ltibia 31.297 0 0
lfoot -12.5652 10.2995 0
ltoes -6.65976 0 0
rfemur 10.0805 3.16245 24.9429
rtibia 19.1987 0 0
rfoot -0.318784 5.34954 0
rtoes -13.3175 0 0
lowerback -6.94515 2.36521 1.35691
upperback -2.0042 2.9313 2.72214
thorax 1.75432 1.48691 2.30375
lowerneck -17.3074 -5.95379 -14.1201
upperneck 16.2356 -7.50897 14.6563
head 9.08033 -2.99139 6.43903
lclavicle 8.06038e-015 5.75834e-015 0
lhumerus -47.6355 -7.41006 92.2008
lradius 22.3449 0 0
lwrist -0.0935652 0 0
lhand -11.6395 -27.4736 0
lfingers 7.12502 0 0
lthumb 14.4034 1.99098 0
rclavicle 8.06038e-015 5.75834e-015 0
rhumerus -43.1602 11.6239 -86.3351
rradius 46.9525 0 0
rwrist -26.0484 0 0
rhand -30.7176 -27.8558 0
rfingers 7.12502 0 0
rthumb -4.01038 -57.7963 0
235
root 8.99574 16.405 -3.96009 9.15386 -4.31615 -3.73587
lfemur -43.2785 4.61828 -17.8097
ltibia 31.9619 0 0
lfoot -12.3453 9.99215 0
ltoes -5.88976 0 0
rfemur 9.86746 2.97013 24.5233
rtibia 20.3986 0 0
rfoot 0.451448 5.25836 0
rtoes -13.4931 0 0
lowerback -6.87131 2.34146 1.20345
upperback -2.06998 2.91651 2.65161
thorax 1.64179 1.47966 2.30973
lowerneck -17.4412 -5.93956 -14.0829
upperneck 16.3563 -7.48641 14.6185
head 9.1387 -2.97643 6.42504
lclavicle 9.64194e-015 6.93823e-015 0
lhumerus -47.4218 -7.28597 91.9715
lradius 22.1754 0 0
lwrist -0.428825 0 0
lhand -11.4801 -27.2317 0
lfingers 7.12502 0 0
lthumb 14.557 2.22201 0
rclavicle 9.64194e-015 6.93823e-015 0
rhumerus -43.4494 11.497 -86.4397
rradius 46.5381 0 0
rwrist -26.0064 0 0
rhand -30.6646 -27.7973 0
rfingers 7.12502 0 0
rthumb -3.95922 -57.7388 0
236
root 9.02678 16.4065 -3.79308 9.1768 -4.46564 -3.56339
lfemur -43.1431 4.95413 -18.2741
ltibia 32.6268 0 0
lfoot -12.1254 9.68478 0
ltoes -5.11976 0 0
rfemur 9.65446 2.7778 24.1037
rtibia 21.5985 0 0
rfoot 1.22168 5.16718 0
rtoes -13.6687 0 0
lowerback -6.79746 2.3177 1.04999
upperback -2.13577 2.90172 2.58107
thorax 1.52925 1.47241 2.31572
lowerneck -17.5749 -5.92533 -14.0457
upperneck 16.4769 -7.46385 14.5807
head 9.19707 -2.96148 6.41105
lclavicle 1.12235e-014 8.11811e-015 0
lhumerus -47.2081 -7.16187 91.7423
lradius 22.006 0 0
lwrist -0.764086 0 0
lhand -11.3207 -26.9898 0
lfingers 7.12502 0 0
lthumb 14.7106 2.45303 0
rclavicle 1.12235e-014 8.11811e-015 0
rhumerus -43.7386 11.3701 -86.5443
rradius 46.1237 0 0
rwrist -25.9643 0 0
rhand -30.6116 -27.7388 0
rfingers 7.12502 0 0
rthumb -3.90806 -57.6813 0
237
root 9.05782 16.408 -3.62606 9.19974 -4.61512 -3.3909
lfemur -43.0078 5.28997 -18.7384
ltibia 33.2917 0 0
lfoot -11.9055 9.37741 0
ltoes -4.34977 0 0
rfemur 9.44146 2.58547 23.6842
rtibia 22.7984 0 0
rfoot 1.99191 5.076 0
rtoes -13.8443 0 0
lowerback -6.72361 2.29395 0.89653
upperback -2.20156 2.88693 2.51054
thorax 1.41671 1.46516 2.3217
lowerneck -17.7087 -5.91109 -14.0084
upperneck 16.5976 -7.44129 14.5429
head 9.25545 -2.94652 6.39706
lclavicle 1.28051e-014 9.29799e-015 0
lhumerus -46.9944 -7.03778 91.513
lradius 21.8365 0 0
lwrist -1.09935 0 0
lhand -11.1613 -26.7478 0
lfingers 7.12502 0 0
lthumb 14.8641 2.68406 0
rclavicle 1.28051e-014 9.29799e-015 0
rhumerus -44.0278 11.2432 -86.6488
rradius 45.7094 0 0
rwrist -25.9223 0 0
rhand -30.5586 -27.6803 0
rfingers 7.12502 0 0
rthumb -3.8569 -57.6238 0
238
root 9.08887 16.4094 -3.45904 9.22267 -4.76461 -3.21842
lfemur -42.8725 5.62582 -19.2028
ltibia 33.9567 0 0
lfoot -11.6856 9.07005 0
ltoes -3.57977 0 0
rfemur 9.22845 2.39314 23.2646
rtibia 23.9983 0 0
rfoot 2.76215 4.98483 0
rtoes -14.0199 0 0
lowerback -6.64977 2.27019 0.743068
upperback -2.26735 2.87214 2.44
thorax 1.30417 1.4579 2.32768
lowerneck -17.8425 -5.89686 -13.9712
upperneck 16.7183 -7.41873 14.5051
head 9.31382 -2.93156 6.38306
lclavicle 1.43866e-014 1.04779e-014 0
lhumerus -46.7807 -6.91369 91.2837
lradius 21.667 0 0
lwrist -1.43461 0 0
lhand -11.002 -26.5059 0
lfingers 7.12502 0 0
lthumb 15.0177 2.91508 0
rclavicle 1.43866e-014 1.04779e-014 0
rhumerus -44.317 11.1164 -86.7534
rradius 45.295 0 0
rwrist -25.8802 0 0
rhand -30.5057 -27.6219 0
rfingers 7.12502 0 0
rthumb -3.80574 -57.5663 0
239
root 9.11991 16.4109 -3.29202 9.24561 -4.9141 -3.04593
lfemur -42.7371 5.96167 -19.6672
ltibia 34.6216 0 0
lfoot -11.4657 8.76268 0
ltoes -2.80977 0 0
rfemur 9.01545 2.20081 22.845
rtibia 25.1982 0 0
rfoot 3.53238 4.89365 0
rtoes -14.1955 0 0
lowerback -6.57592 2.24643 0.589607
upperback -2.33313 2.85735 2.36946
thorax 1.19164 1.45065 2.33367
lowerneck -17.9762 -5.88263 -13.934
upperneck 16.8389 -7.39617 14.4673
head 9.37219 -2.91661 6.36907
lclavicle 1.59682e-014 1.16578e-014 0
lhumerus -46.567 -6.78959 91.0545
lradius 21.4976 0 0
lwrist -1.76987 0 0
lhand -10.8426 -26.264 0
lfingers 7.12502 0 0
lthumb 15.1713 3.1461 0
rclavicle 1.59682e-014 1.16578e-014 0
rhumerus -44.6062 10.9895 -86.858
rradius 44.8806 0 0
rwrist -25.8381 0 0
rhand -30.4527 -27.5634 0
rfingers 7.12502 0 0
rthumb -3.75458 -57.5088 0
240
root 9.15095 16.4123 -3.12501 9.26855 -5.06359 -2.87345
lfemur -42.6018 6.29751 -20.1315
ltibia 35.2865 0 0
lfoot -11.2458 8.45531 0
ltoes -2.03978 0 0
rfemur 8.80245 2.00849 22.4254
rtibia 26.3982 0 0
rfoot 4.30261 4.80247 0
rtoes -14.371 0 0
lowerback -6.50208 2.22268 0.436145
upperback -2.39892 2.84256 2.29893
thorax 1.0791 1.4434 2.33965
lowerneck -18.11 -5.8684 -13.8968
upperneck 16.9596 -7.37361 14.4295
head 9.43056 -2.90165 6.35508
lclavicle 1.75497e-014 1.28376e-014 0
lhumerus -46.3533 -6.6655 90.8252
lradius 21.3281 0 0
lwrist -2.10513 0 0
lhand -10.6832 -26.0221 0
lfingers 7.12502 0 0
lthumb 15.3249 3.37713 0
rclavicle 1.75497e-014 1.28376e-014 0
rhumerus -44.8953 10.8626 -86.9625
rradius 44.4663 0 0
rwrist -25.7961 0 0
rhand -30.3997 -27.5049 0
rfingers 7.12502 0 0
rthumb -3.70342 -57.4512 0
